<svg id="Capa_1" data-name="Capa 1" xmlns="http://www.w3.org/2000/svg" viewBox="0 0 1474.51 575.74"><defs><style>.cls-1{fill:#030303;}</style></defs><title>Sin título-1</title><path class="cls-1" d="M737.84,578.82c-154.32,0-308.65.21-463-.3-16.64,0-33.5-3.23-49.83-6.88a314.79,314.79,0,0,1-47.63-14.9c-13.46-5.35-26.38-12.37-38.86-19.8A276.5,276.5,0,0,1,83,493a289.8,289.8,0,0,1-57.82-84.85c-9.83-21.78-16-44.74-20.39-68.31C.56,317.16.15,294.38,1.3,271.65c.79-15.59,3.88-31.17,7.05-46.51a236.4,236.4,0,0,1,27.32-71.81c8.51-14.56,18.19-28.48,28.09-42.15A192.4,192.4,0,0,1,84.25,87.74a297.27,297.27,0,0,1,63-47.77,270,270,0,0,1,71.4-28.2c12.17-2.87,24.55-5.42,37-6.47,17.78-1.51,35.69-2.07,53.54-2.08q446-.18,891.95.21c16.63,0,33.5,3.24,49.82,6.89a315.65,315.65,0,0,1,47.64,14.89C1312,30.56,1325,37.59,1337.43,45a274.57,274.57,0,0,1,55.22,43.62,288.9,288.9,0,0,1,58.22,85.3c9.79,21.8,16,44.74,20.36,68.31,4.2,22.66,4.62,45.44,3.47,68.17-.8,15.59-3.93,31.15-7.09,46.5a237.26,237.26,0,0,1-27.31,71.81,490.43,490.43,0,0,1-27.36,41.36,197.66,197.66,0,0,1-21.21,24.16,297.35,297.35,0,0,1-63,47.77,270.77,270.77,0,0,1-71.4,28.19c-12.17,2.88-24.55,5.4-37,6.47-17.44,1.5-35,2.05-52.53,2.07Q952.83,579,737.84,578.82Zm.47-528.94q-216.21,0-432.44.08c-15.55,0-31.22.17-46.61,2.11a256.09,256.09,0,0,0-46.41,9.79,230.7,230.7,0,0,0-67.44,34.89,244.51,244.51,0,0,0-44.57,42.53c-13.81,17.12-25.95,35.57-34,56.29-4.59,11.87-9.46,23.76-12.58,36.05a233.8,233.8,0,0,0-7.09,66.26,243.85,243.85,0,0,0,5.94,47.39,236.61,236.61,0,0,0,26.32,66.51c11.55,19.52,25.06,37.7,42.13,52.87,9.09,8.09,18.2,16.27,28,23.44,22,16.11,46.55,27.39,72.67,35.11,17.83,5.28,36.21,8.71,54.7,8.72q459.18.39,918.36.11A159.28,159.28,0,0,0,1221,530.1c16.41-2.7,33-5.39,48.29-12.22,15-6.67,30.16-13.09,44.28-21.3,22.32-13,41.27-30.25,58.06-49.93,12.74-14.95,24.18-30.88,32.15-48.72a376.48,376.48,0,0,0,18.65-51.61c5.55-19.77,6.82-40.25,6.37-60.92a232,232,0,0,0-8.86-59.75c-5.68-19.61-13.22-38.52-23.76-56.06-11.7-19.47-25.27-37.56-42.22-52.82a345.85,345.85,0,0,0-27.73-23c-22-16-46.29-27.26-72.29-34.93-17.84-5.26-36.2-8.72-54.68-8.76Q968.78,49.56,738.31,49.88Z" transform="translate(-0.75 -3.13)"/><path class="cls-1" d="M1331,291.22c-.21,82.61-65.66,144.19-141.54,146.12-85.57,2.18-147.31-64.31-150.59-138.61-4-90.83,67.88-153.77,144.61-154.22C1265,144,1331.38,209.29,1331,291.22Zm-46.39,0c.51-54-44-101.19-101.76-100.08a99.31,99.31,0,0,0-97.61,93.4c-3.59,61.27,44.88,105.35,97.18,106.34C1240.23,392,1284.86,345.17,1284.63,291.22Z" transform="translate(-0.75 -3.13)"/></svg>